<svg width="243" height="366" viewBox="0 0 243 366" fill="none" xmlns="http://www.w3.org/2000/svg">
<path fill-rule="evenodd" clip-rule="evenodd" d="M243 2.317C243.003 3.5929 238.796 4.634 233.647 4.634C209.386 4.634 177.065 27.6434 117.269 87.49C92.3438 112.433 82.4076 121.525 95.1835 107.694C133.162 66.5845 150.204 25.9535 136.036 10.2844C133.227 7.17653 127.057 4.634 122.328 4.634C117.599 4.634 113.083 3.5929 112.296 2.317C111.506 1.04111 140.592 0 176.926 0C213.263 0 242.994 1.04111 243 2.317ZM23.8496 179.182C20.5746 183.13 21.4111 183.816 29.4921 183.816C62.165 183.816 105.367 203.442 128.103 228.614C136.126 237.496 152.961 261.982 165.517 283.027C203.536 346.75 213.226 357.887 235.289 363.217C240.574 364.492 225.335 365.571 199.792 365.728L155.035 366L124.168 306.935C87.865 237.471 67.5976 205.358 53.871 195.558C46.929 190.603 35.9681 187.387 17.6762 184.937C0.582012 182.648 -4.25796 181.285 3.78601 181.026C10.5768 180.81 18.2164 179.284 20.7629 177.637C27.3438 173.38 28.2729 173.846 23.8496 179.182Z" fill="white"/>
<path d="M112 92.5003C97.2044 106.505 45.4999 158.001 24 179.001C22.9999 179.501 20.4999 178.001 20.4999 178.001C30.9996 170.501 72.9813 130.843 93.5002 109.001L111 88.9995C111 89.4995 113.057 91.5001 112 92.5003Z" fill="white"/>
</svg>
