<svg width="630" height="630" viewBox="0 0 630 630" fill="none" xmlns="http://www.w3.org/2000/svg">
<circle cx="315" cy="315" r="315" fill="black"/>
<path fill-rule="evenodd" clip-rule="evenodd" d="M437 134.317C437.003 135.593 432.796 136.634 427.647 136.634C403.386 136.634 371.065 159.643 311.269 219.49C286.344 244.433 276.408 253.525 289.184 239.694C327.162 198.584 344.204 157.954 330.036 142.284C327.227 139.177 321.057 136.634 316.328 136.634C311.599 136.634 307.083 135.593 306.296 134.317C305.506 133.041 334.592 132 370.926 132C407.263 132 436.994 133.041 437 134.317ZM217.85 311.182C214.575 315.13 215.411 315.816 223.492 315.816C256.165 315.816 299.367 335.442 322.103 360.614C330.126 369.496 346.961 393.982 359.517 415.027C397.536 478.75 407.226 489.887 429.289 495.217C434.574 496.492 419.335 497.571 393.792 497.728L349.035 498L318.168 438.935C281.865 369.471 261.598 337.358 247.871 327.558C240.929 322.603 229.968 319.387 211.676 316.937C194.582 314.648 189.742 313.285 197.786 313.026C204.577 312.81 212.216 311.284 214.763 309.637C221.344 305.38 222.273 305.846 217.85 311.182Z" fill="white"/>
<path d="M306 224.5C291.204 238.505 239.5 290.001 218 311.001C217 311.501 214.5 310.001 214.5 310.001C225 302.501 266.981 262.843 287.5 241.001L305 221C305 221.5 307.057 223.5 306 224.5Z" fill="white"/>
</svg>
